PathFileType	4	(X/Y/Z)	Walk10.trc
DataRate	CameraRate	NumFrames	NumMarkers	Units	OrigDataRate	OrigDataStartFrame	OrigNumFrames
200.000000	200.000000	9	59	mm	200.000000	303	536
Frame#	Times		C7		T10		RBack		LPSI		RPSI		RCAR		LElbowM		LLFC		LTH1		LBHD		RWRR		LUA1		CLAV		RUA1		RElbowM		RFA1		LFA1		RTH3		LCAR		LWRU		RTH4		RTH2		RACR1		LACR1		STRN		RTB4		LWRR		RTB3		RMT1		RWRU		RTB1		RToe		RCAL		RFHD		RLFC		RMT5		RBHD		LFHD		RTB2		LElbow		LTB3		LTH4		LTH3		RTH1		RMMAL		RLMAL		LTH2		RElbow		LTB2		LCAL		LMT1		LLMAL		RASI		LASI		LTB4		LMT5		LMMAL		LToe		LTB1
			X1	Y1	Z1	X2	Y2	Z2	X3	Y3	Z3	X4	Y4	Z4	X5	Y5	Z5	X6	Y6	Z6	X7	Y7	Z7	X8	Y8	Z8	X9	Y9	Z9	X10	Y10	Z10	X11	Y11	Z11	X12	Y12	Z12	X13	Y13	Z13	X14	Y14	Z14	X15	Y15	Z15	X16	Y16	Z16	X17	Y17	Z17	X18	Y18	Z18	X19	Y19	Z19	X20	Y20	Z20	X21	Y21	Z21	X22	Y22	Z22	X23	Y23	Z23	X24	Y24	Z24	X25	Y25	Z25	X26	Y26	Z26	X27	Y27	Z27	X28	Y28	Z28	X29	Y29	Z29	X30	Y30	Z30	X31	Y31	Z31	X32	Y32	Z32	X33	Y33	Z33	X34	Y34	Z34	X35	Y35	Z35	X36	Y36	Z36	X37	Y37	Z37	X38	Y38	Z38	X39	Y39	Z39	X40	Y40	Z40	X41	Y41	Z41	X42	Y42	Z42	X43	Y43	Z43	X44	Y44	Z44	X45	Y45	Z45	X46	Y46	Z46	X47	Y47	Z47	X48	Y48	Z48	X49	Y49	Z49	X50	Y50	Z50	X51	Y51	Z51	X52	Y52	Z52	X53	Y53	Z53	X54	Y54	Z54	X55	Y55	Z55	X56	Y56	Z56	X57	Y57	Z57	X58	Y58	Z58	X59	Y59	Z59

303	1.515	-163.38	1352.6	-6.788	-188.41	1088.5	-17.962	-184.68	1254.5	118.79	-216.49	904.7	-53.136	-221.61	903.56	46.346	-77.163	737.13	311.8	-124.88	965.86	-216.31	-128.47	449.8	-130.52	-57.079	734.56	-191.4	-156.25	1480.1	-71.695	-42.215	770	267.87	-68.749	1122.5	-260.31	-36.2	1277.6	-3.5698	-92.03	1135.6	223.26	-164.65	961.17	176.6	-137.12	870.68	272.28	-49.259	887.89	-307.17	24.375	565.26	164.86	65.093	749.85	-319.07	5.5069	776.01	-318.34	-10.319	652.89	184.22	55.737	686.24	160	-86.598	1291.6	146.65	-79.477	1294.5	-172.15	27.492	1172.3	-8.4647	71.025	260.88	84.439	59.948	791.15	-270.9	60.326	168.44	83.103	110.36	72.092	88.198	-116.18	758.79	267.71	96.013	348.8	82.448	158.3	52.426	114.03	-48.812	68.572	84.986	19.624	1526	19.519	72.563	478.73	156.01	79.828	55.715	133.41	-154.02	1487	51.705	13.461	1516.3	-57.456	37.29	266.42	148.24	-97.972	1003.4	-280.9	-152.64	158.33	-29.61	-67.143	644.76	-163.37	-83.304	554.38	-139	-40.122	735.66	205.19	24.552	97.728	44.641	6.4771	91.401	123.55	-10.308	652.5	-118.27	-130.44	997	259.09	-162.18	247.88	-107.26	-261.69	34.675	-31.781	-106.31	46.942	-18.845	-212.16	65.684	-71.39	-1.1908	875.28	142.91	37.545	843.04	-162.88	-142.74	248.74	-39.505	-128.93	33.076	-76.355	-197.19	70.288	8.248	-48.64	23.392	-28.37	-116.12	336.79	-45.516
304	1.52	-157.58	1351.7	-6.5472	-182.65	1087.7	-17.745	-179.01	1253.6	118.9	-210.93	904.13	-52.782	-215.77	902.74	46.705	-72.945	736.26	312.32	-118.5	964.91	-216.27	-125.4	449.34	-130.33	-52.055	733.61	-191.25	-150.38	1479.2	-71.382	-37.808	769	268.4	-62.548	1121.7	-260.09	-30.439	1276.7	-3.3183	-86.675	1134.7	223.53	-159.88	960.4	177.03	-132.43	869.91	272.72	-42.42	887.14	-306.86	31.11	564.62	164.5	72.326	749.41	-318.47	12.672	775.4	-317.84	-3.7526	652.14	184.13	62.108	685.72	159.65	-80.922	1290.6	146.9	-73.616	1293.7	-171.89	33.21	1171.4	-8.2662	84.075	260.48	84.218	67	790.7	-270.34	76.397	167.78	83.134	129.47	72.685	87.988	-111.84	757.95	268.18	106.13	349.15	82.062	178.05	54.395	113.59	-29.447	64.606	85.544	25.486	1525.1	19.858	79.615	478.28	155.44	99.607	55.549	133.31	-148.18	1486.2	52.01	19.325	1515.4	-57.113	50.384	265.08	148.14	-91.478	1002.5	-280.74	-151.74	158.01	-29.373	-62.744	643.9	-163.18	-79.534	553.64	-138.77	-33.819	734.84	205.35	42.785	95.825	44.782	25.237	89.102	123.8	-5.9283	651.31	-117.99	-125.37	996.22	259.47	-160.52	247.62	-107.03	-261.66	34.957	-31.657	-106.24	46.885	-18.698	-211.93	65.796	-71.235	4.7834	874.48	143.12	39.226	842.96	-163.09	-141.28	248.33	-39.187	-128.93	33.089	-76.217	-197	70.28	8.4239	-48.53	23.402	-28.415	-113.91	336.19	-45.242
305	1.525	-151.78	1350.9	-6.287	-176.87	1086.8	-17.516	-173.34	1252.7	119.03	-205.36	903.55	-52.429	-209.88	901.89	47.065	-68.661	735.37	312.83	-112.13	963.94	-216.2	-122.31	448.88	-130.14	-47.043	732.65	-191.12	-144.53	1478.3	-71.049	-33.363	767.99	268.9	-56.337	1120.9	-259.85	-24.673	1275.8	-3.0528	-81.325	1133.7	223.82	-155.09	959.6	177.48	-127.71	869.13	273.17	-35.588	886.36	-306.52	37.694	563.87	164.19	79.533	748.93	-317.87	19.814	774.77	-317.34	2.7266	651.32	184.07	68.416	685.07	159.34	-75.24	1289.6	147.17	-67.755	1292.9	-171.63	38.942	1170.5	-8.0556	96.979	260.18	83.979	74.03	790.22	-269.75	92.339	167.3	83.126	148.44	73.538	87.679	-107.45	757.09	268.65	116.08	349.49	81.664	197.63	56.637	113.01	-10.095	60.918	86.098	31.342	1524.1	20.216	86.506	477.72	154.93	119.28	55.678	133.13	-142.34	1485.3	52.336	25.184	1514.5	-56.751	63.392	263.85	148.03	-84.975	1001.6	-280.55	-150.81	157.69	-29.143	-58.34	643.03	-162.99	-75.743	552.9	-138.54	-27.542	733.97	205.53	60.914	94.162	44.893	43.958	87.071	124.01	-1.5265	650.11	-117.75	-120.28	995.41	259.87	-158.85	247.36	-106.8	-261.63	35.27	-31.517	-106.16	46.831	-18.551	-211.69	65.927	-71.072	10.797	873.65	143.33	40.793	842.88	-163.3	-139.77	247.92	-38.879	-128.93	33.104	-76.075	-196.78	70.293	8.604	-48.418	23.414	-28.458	-111.65	335.58	-44.977
306	1.53	-145.99	1350	-6.0069	-171.07	1085.9	-17.273	-167.66	1251.8	119.17	-199.76	902.95	-52.073	-203.96	901.02	47.428	-64.311	734.46	313.33	-105.74	962.95	-216.11	-119.18	448.42	-129.95	-42.04	731.68	-191	-138.68	1477.5	-70.696	-28.879	766.98	269.39	-50.114	1120	-259.58	-18.901	1274.9	-2.773	-75.979	1132.8	224.14	-150.28	958.78	177.94	-122.94	868.32	273.63	-28.762	885.57	-306.17	44.13	563.03	163.93	86.715	748.42	-317.25	26.933	774.11	-316.82	9.12	650.42	184.05	74.664	684.31	159.07	-69.553	1288.6	147.46	-61.895	1292	-171.34	44.691	1169.5	-7.8325	109.72	259.96	83.72	81.038	789.7	-269.15	108.13	167	83.075	167.22	74.647	87.265	-103	756.22	269.13	125.84	349.83	81.25	217.01	59.148	112.28	9.2062	57.511	86.655	37.193	1523.2	20.592	93.241	477.06	154.47	138.83	56.102	132.85	-136.51	1484.4	52.681	31.036	1513.5	-56.37	76.307	262.71	147.92	-78.464	1000.7	-280.34	-149.86	157.38	-28.918	-53.93	642.16	-162.81	-71.93	552.15	-138.32	-21.29	733.02	205.73	78.9	92.739	44.976	62.608	85.31	124.18	2.8975	648.91	-117.53	-115.17	994.59	260.28	-157.17	247.11	-106.57	-261.59	35.616	-31.36	-106.07	46.782	-18.402	-211.45	66.081	-70.9	16.852	872.79	143.55	42.287	842.79	-163.49	-138.22	247.52	-38.58	-128.93	33.119	-75.926	-196.55	70.328	8.7909	-48.307	23.427	-28.5	-109.34	334.96	-44.72
307	1.535	-140.19	1349	-5.7064	-165.25	1084.9	-17.018	-161.97	1250.8	119.32	-194.13	902.33	-51.711	-198.01	900.12	47.797	-59.893	733.53	313.82	-99.351	961.94	-215.98	-116.02	447.96	-129.75	-37.045	730.7	-190.89	-132.83	1476.5	-70.323	-24.356	765.95	269.85	-43.88	1119.1	-259.28	-13.123	1273.9	-2.4783	-70.637	1131.8	224.47	-145.44	957.93	178.43	-118.14	867.49	274.1	-21.944	884.75	-305.8	50.423	562.09	163.71	93.872	747.87	-316.63	34.028	773.42	-316.3	15.43	649.46	184.05	80.853	683.42	158.84	-63.859	1287.5	147.76	-56.035	1291.1	-171.04	50.456	1168.6	-7.5969	122.29	259.84	83.44	88.023	789.15	-268.54	123.73	166.88	82.979	185.79	76.003	86.739	-98.511	755.34	269.61	135.43	350.16	80.816	236.15	61.915	111.38	28.415	54.389	87.222	43.039	1522.2	20.985	99.829	476.29	154.06	158.2	56.812	132.48	-130.68	1483.4	53.048	36.884	1512.6	-55.971	89.12	261.68	147.8	-71.948	999.82	-280.11	-148.88	157.08	-28.696	-49.511	641.28	-162.64	-68.095	551.4	-138.1	-15.059	732.02	205.94	96.706	91.553	45.032	81.155	83.822	124.31	7.3441	647.7	-117.35	-110.04	993.74	260.72	-155.47	246.87	-106.33	-261.55	35.999	-31.183	-105.98	46.737	-18.251	-211.2	66.259	-70.716	22.949	871.89	143.77	43.749	842.69	-163.68	-136.62	247.13	-38.289	-128.93	33.137	-75.771	-196.29	70.388	8.9872	-48.195	23.441	-28.541	-106.98	334.33	-44.471
308	1.54	-134.4	1348.1	-5.3851	-159.41	1083.9	-16.75	-156.27	1249.7	119.49	-188.47	901.7	-51.337	-192.01	899.19	48.177	-55.408	732.59	314.3	-92.956	960.91	-215.83	-112.83	447.5	-129.54	-32.053	729.71	-190.78	-126.99	1475.6	-69.928	-19.791	764.91	270.3	-37.636	1118.2	-258.97	-7.3388	1273	-2.1681	-65.298	1130.8	224.84	-140.57	957.07	178.92	-113.29	866.64	274.58	-15.135	883.92	-305.42	56.58	561.06	163.55	101	747.3	-315.99	41.1	772.72	-315.78	21.659	648.42	184.09	86.987	682.41	158.66	-58.157	1286.5	148.08	-50.174	1290.3	-170.72	56.237	1167.6	-7.3482	134.66	259.8	83.137	94.983	788.57	-267.91	139.12	166.93	82.838	204.1	77.594	86.097	-93.964	754.43	270.1	144.83	350.49	80.357	255.03	64.922	110.31	47.487	51.55	87.804	48.881	1521.2	21.397	106.28	475.44	153.69	177.38	57.798	132.01	-124.85	1482.5	53.436	42.726	1511.6	-55.553	101.82	260.76	147.68	-65.426	998.88	-279.86	-147.88	156.79	-28.476	-45.083	640.4	-162.47	-64.236	550.64	-137.88	-8.8494	730.96	206.16	114.29	90.598	45.064	99.563	82.601	124.39	11.814	646.5	-117.18	-104.91	992.88	261.16	-153.76	246.64	-106.08	-261.49	36.422	-30.982	-105.88	46.697	-18.099	-210.95	66.465	-70.517	29.089	870.97	144	45.223	842.57	-163.86	-134.97	246.74	-38.004	-128.94	33.157	-75.611	-196.01	70.475	9.1952	-48.084	23.457	-28.582	-104.58	333.69	-44.229
309	1.545	-128.61	1347.1	-5.0429	-153.55	1082.9	-16.47	-150.56	1248.7	119.68	-182.78	901.06	-50.948	-185.97	898.23	48.572	-50.854	731.64	314.77	-86.553	959.87	-215.65	-109.6	447.04	-129.33	-27.064	728.72	-190.69	-121.16	1474.6	-69.513	-15.182	763.86	270.73	-31.382	1117.3	-258.62	-1.5479	1272	-1.8419	-59.96	1129.8	225.22	-135.67	956.18	179.43	-108.41	865.78	275.07	-8.3349	883.07	-305.01	62.608	559.94	163.44	108.11	746.69	-315.35	48.149	771.99	-315.25	27.81	647.32	184.16	93.068	681.3	158.52	-52.446	1285.4	148.42	-44.314	1289.4	-170.37	62.036	1166.6	-7.0862	146.83	259.84	82.81	101.92	787.95	-267.27	154.28	167.14	82.65	222.12	79.401	85.338	-89.363	753.52	270.58	154.05	350.8	79.87	273.6	68.146	109.06	66.376	48.992	88.406	54.718	1520.1	21.826	112.61	474.5	153.38	196.32	59.044	131.45	-119.03	1481.5	53.846	48.562	1510.5	-55.117	114.4	259.95	147.56	-58.901	997.93	-279.58	-146.86	156.51	-28.258	-40.643	639.52	-162.3	-60.352	549.88	-137.66	-2.6596	729.84	206.39	131.61	89.864	45.074	117.79	81.643	124.45	16.308	645.29	-117.04	-99.757	992	261.62	-152.04	246.42	-105.83	-261.43	36.889	-30.758	-105.76	46.664	-17.945	-210.69	66.7	-70.302	35.274	870.01	144.24	46.755	842.43	-164.03	-133.27	246.37	-37.723	-128.94	33.18	-75.443	-195.71	70.593	9.4168	-47.974	23.473	-28.623	-102.13	333.05	-43.992
310	1.55	-122.82	1346	-4.6793	-147.67	1081.9	-16.177	-144.84	1247.6	119.89	-177.05	900.4	-50.539	-179.89	897.25	48.987	-46.231	730.67	315.23	-80.144	958.82	-215.43	-106.34	446.58	-129.11	-22.074	727.72	-190.61	-115.34	1473.6	-69.076	-10.525	762.8	271.14	-25.119	1116.4	-258.26	4.2505	1271	-1.4987	-54.622	1128.8	225.63	-130.73	955.28	179.94	-103.48	864.89	275.56	-1.5459	882.21	-304.6	68.518	558.75	163.37	115.19	746.06	-314.69	55.176	771.24	-314.71	33.889	646.16	184.26	99.1	680.08	158.42	-46.726	1284.4	148.78	-38.454	1288.4	-170.01	67.854	1165.7	-6.8102	158.78	259.94	82.458	108.83	787.3	-266.62	169.17	167.49	82.415	239.8	81.399	84.462	-84.705	752.59	271.06	163.08	351.1	79.351	291.83	71.557	107.63	85.03	46.707	89.032	60.552	1519.1	22.273	118.83	473.48	153.11	214.98	60.528	130.78	-113.21	1480.5	54.278	54.393	1509.5	-54.663	126.84	259.25	147.43	-52.375	996.96	-279.28	-145.81	156.25	-28.037	-36.19	638.65	-162.14	-56.442	549.12	-137.44	3.5102	728.67	206.61	148.63	89.339	45.065	135.8	80.936	124.46	20.827	644.09	-116.92	-94.597	991.1	262.1	-150.3	246.22	-105.57	-261.36	37.404	-30.507	-105.65	46.638	-17.79	-210.43	66.969	-70.07	41.505	869.03	144.49	48.39	842.26	-164.19	-131.53	246.01	-37.444	-128.95	33.206	-75.27	-195.38	70.743	9.6535	-47.865	23.49	-28.664	-99.639	332.41	-43.76
311	1.555	-117.03	1345	-4.2943	-141.76	1080.8	-15.87	-139.11	1246.5	120.12	-171.29	899.72	-50.104	-173.78	896.25	49.424	-41.538	729.69	315.69	-73.728	957.75	-215.18	-103.04	446.12	-128.89	-17.083	726.72	-190.53	-109.52	1472.6	-68.618	-5.8167	761.74	271.53	-18.849	1115.4	-257.87	10.057	1269.9	-1.138	-49.281	1127.8	226.07	-125.74	954.36	180.46	-98.513	863.98	276.05	5.2308	881.33	-304.16	74.32	557.48	163.36	122.24	745.41	-314.02	62.179	770.47	-314.17	39.9	644.94	184.38	105.09	678.77	158.37	-40.995	1283.3	149.15	-32.594	1287.5	-169.63	73.69	1164.7	-6.5196	170.5	260.11	82.08	115.71	786.62	-265.95	183.76	167.98	82.133	257.11	83.56	83.473	-79.987	751.64	271.53	171.93	351.37	78.797	309.67	75.119	106.03	103.4	44.689	89.682	66.381	1518	22.739	124.96	472.4	152.88	233.31	62.223	130.02	-107.39	1479.5	54.733	60.219	1508.4	-54.19	139.13	258.66	147.29	-45.85	995.98	-278.96	-144.74	156.01	-27.814	-31.723	637.77	-161.98	-52.503	548.36	-137.22	9.6601	727.45	206.84	165.3	89.007	45.038	153.54	80.467	124.45	25.372	642.88	-116.82	-89.427	990.18	262.58	-148.55	246.03	-105.31	-261.28	37.97	-30.23	-105.52	46.622	-17.635	-210.16	67.274	-69.821	47.781	868.01	144.77	50.172	842.06	-164.34	-129.74	245.66	-37.165	-128.96	33.238	-75.091	-195.03	70.93	9.9061	-47.758	23.507	-28.706	-97.094	331.76	-43.53
